<!DOCTYPE svg PUBLIC "-//W3C//DTD SVG 1.1//EN" "http://www.w3.org/Graphics/SVG/1.1/DTD/svg11.dtd">
<!-- Uploaded to: SVG Repo, www.svgrepo.com, Transformed by: SVG Repo Mixer Tools -->
<svg fill="#ffffff" height="64px" width="64px" version="1.1" id="Layer_1" xmlns="http://www.w3.org/2000/svg" xmlns:xlink="http://www.w3.org/1999/xlink" viewBox="0 0 512 512" xml:space="preserve" stroke="#ffffff">
<g id="SVGRepo_bgCarrier" stroke-width="0"/>
<g id="SVGRepo_tracerCarrier" stroke-linecap="round" stroke-linejoin="round"/>
<g id="SVGRepo_iconCarrier"> <g> <g> <path d="M435.2,339.478v-58.991H306.087v58.991h-33.391V175.372c40.834-7.831,71.791-43.803,71.791-86.885 C344.487,39.696,304.792,0,256,0s-88.487,39.696-88.487,88.487c0,43.084,30.957,79.054,71.791,86.885v164.106h-33.391v-58.991 H76.8v58.991H38.957V512h434.087V339.478H435.2z M339.478,313.878h62.33v25.6h-62.33V313.878z M200.904,88.487 c0-30.379,24.716-55.096,55.096-55.096s55.096,24.716,55.096,55.096c0,30.379-24.716,55.096-55.096,55.096 S200.904,118.866,200.904,88.487z M110.191,313.878h62.33v25.6h-62.33V313.878z M439.652,478.609H72.348V372.87h367.304V478.609z"/> </g> </g> </g>
</svg>